<mxfile host="app.diagrams.net" modified="2024-01-17T08:40:24.094Z" agent="Mozilla/5.0 (Macintosh; Intel Mac OS X 10_15_7) AppleWebKit/537.36 (KHTML, like Gecko) Chrome/114.0.0.0 Safari/537.36" etag="s6MNMEw6nu5TLoDblsxn" version="22.1.16" type="github">
  <diagram name="第 1 页" id="0mIoXDiDsNPliHBMNAiw">
    <mxGraphModel dx="954" dy="616" grid="1" gridSize="10" guides="1" tooltips="1" connect="1" arrows="1" fold="1" page="1" pageScale="1" pageWidth="827" pageHeight="1169" math="0" shadow="0">
      <root>
        <mxCell id="0" />
        <mxCell id="1" parent="0" />
        <mxCell id="SD0uzy6EoLrcbfccqOef-7" style="rounded=0;orthogonalLoop=1;jettySize=auto;html=1;exitX=0.5;exitY=1;exitDx=0;exitDy=0;" edge="1" parent="1" source="SD0uzy6EoLrcbfccqOef-1" target="SD0uzy6EoLrcbfccqOef-10">
          <mxGeometry relative="1" as="geometry">
            <mxPoint x="140" y="330" as="targetPoint" />
          </mxGeometry>
        </mxCell>
        <mxCell id="SD0uzy6EoLrcbfccqOef-1" value="&lt;font style=&quot;font-size: 15px;&quot;&gt;openssl 1.0.2&lt;/font&gt;" style="rounded=1;whiteSpace=wrap;html=1;fillColor=#d5e8d4;strokeColor=#82b366;" vertex="1" parent="1">
          <mxGeometry x="80" y="220" width="120" height="60" as="geometry" />
        </mxCell>
        <mxCell id="SD0uzy6EoLrcbfccqOef-18" style="rounded=0;orthogonalLoop=1;jettySize=auto;html=1;exitX=0.25;exitY=1;exitDx=0;exitDy=0;entryX=0.75;entryY=0;entryDx=0;entryDy=0;dashed=1;" edge="1" parent="1" source="SD0uzy6EoLrcbfccqOef-2" target="SD0uzy6EoLrcbfccqOef-10">
          <mxGeometry relative="1" as="geometry" />
        </mxCell>
        <mxCell id="SD0uzy6EoLrcbfccqOef-19" style="rounded=0;orthogonalLoop=1;jettySize=auto;html=1;exitX=0.75;exitY=1;exitDx=0;exitDy=0;entryX=0.25;entryY=0;entryDx=0;entryDy=0;dashed=1;" edge="1" parent="1" source="SD0uzy6EoLrcbfccqOef-2" target="SD0uzy6EoLrcbfccqOef-11">
          <mxGeometry relative="1" as="geometry" />
        </mxCell>
        <mxCell id="SD0uzy6EoLrcbfccqOef-2" value="&lt;font style=&quot;font-size: 15px;&quot;&gt;openssl 1.1.0&lt;/font&gt;" style="rounded=1;whiteSpace=wrap;html=1;" vertex="1" parent="1">
          <mxGeometry x="370" y="220" width="120" height="60" as="geometry" />
        </mxCell>
        <mxCell id="SD0uzy6EoLrcbfccqOef-17" style="rounded=0;orthogonalLoop=1;jettySize=auto;html=1;exitX=0.5;exitY=1;exitDx=0;exitDy=0;" edge="1" parent="1" source="SD0uzy6EoLrcbfccqOef-3" target="SD0uzy6EoLrcbfccqOef-11">
          <mxGeometry relative="1" as="geometry" />
        </mxCell>
        <mxCell id="SD0uzy6EoLrcbfccqOef-3" value="&lt;font style=&quot;font-size: 15px;&quot;&gt;openssl 1.1.1&lt;/font&gt;" style="rounded=1;whiteSpace=wrap;html=1;" vertex="1" parent="1">
          <mxGeometry x="640" y="220" width="120" height="60" as="geometry" />
        </mxCell>
        <mxCell id="SD0uzy6EoLrcbfccqOef-13" style="rounded=0;orthogonalLoop=1;jettySize=auto;html=1;exitX=0.5;exitY=1;exitDx=0;exitDy=0;entryX=0.25;entryY=0;entryDx=0;entryDy=0;" edge="1" parent="1" source="SD0uzy6EoLrcbfccqOef-10" target="SD0uzy6EoLrcbfccqOef-12">
          <mxGeometry relative="1" as="geometry" />
        </mxCell>
        <mxCell id="SD0uzy6EoLrcbfccqOef-10" value="&lt;font style=&quot;font-size: 15px;&quot;&gt;openssl头文件暴露&lt;/font&gt;" style="rounded=1;whiteSpace=wrap;html=1;" vertex="1" parent="1">
          <mxGeometry x="200" y="430" width="140" height="60" as="geometry" />
        </mxCell>
        <mxCell id="SD0uzy6EoLrcbfccqOef-14" style="rounded=0;orthogonalLoop=1;jettySize=auto;html=1;exitX=0.5;exitY=1;exitDx=0;exitDy=0;entryX=0.75;entryY=0;entryDx=0;entryDy=0;" edge="1" parent="1" source="SD0uzy6EoLrcbfccqOef-11" target="SD0uzy6EoLrcbfccqOef-12">
          <mxGeometry relative="1" as="geometry" />
        </mxCell>
        <mxCell id="SD0uzy6EoLrcbfccqOef-11" value="&lt;font style=&quot;font-size: 15px;&quot;&gt;openssl 回调方法&lt;/font&gt;" style="rounded=1;whiteSpace=wrap;html=1;" vertex="1" parent="1">
          <mxGeometry x="520" y="430" width="130" height="60" as="geometry" />
        </mxCell>
        <mxCell id="SD0uzy6EoLrcbfccqOef-16" style="edgeStyle=orthogonalEdgeStyle;rounded=0;orthogonalLoop=1;jettySize=auto;html=1;exitX=0.5;exitY=1;exitDx=0;exitDy=0;entryX=0.5;entryY=0;entryDx=0;entryDy=0;" edge="1" parent="1" source="SD0uzy6EoLrcbfccqOef-12" target="SD0uzy6EoLrcbfccqOef-15">
          <mxGeometry relative="1" as="geometry" />
        </mxCell>
        <mxCell id="SD0uzy6EoLrcbfccqOef-12" value="&lt;font style=&quot;font-size: 15px;&quot;&gt;ssl client hello信息&lt;/font&gt;" style="rounded=1;whiteSpace=wrap;html=1;" vertex="1" parent="1">
          <mxGeometry x="354" y="570" width="186" height="60" as="geometry" />
        </mxCell>
        <mxCell id="SD0uzy6EoLrcbfccqOef-15" value="&lt;font style=&quot;font-size: 15px;&quot;&gt;ja3指纹信息&lt;/font&gt;" style="rounded=1;whiteSpace=wrap;html=1;" vertex="1" parent="1">
          <mxGeometry x="387" y="690" width="120" height="60" as="geometry" />
        </mxCell>
        <mxCell id="SD0uzy6EoLrcbfccqOef-20" value="&lt;font color=&quot;#ff0000&quot; style=&quot;font-size: 52px;&quot;&gt;X&lt;/font&gt;" style="text;html=1;strokeColor=none;fillColor=none;align=center;verticalAlign=middle;whiteSpace=wrap;rounded=0;" vertex="1" parent="1">
          <mxGeometry x="340" y="320" width="60" height="30" as="geometry" />
        </mxCell>
        <mxCell id="SD0uzy6EoLrcbfccqOef-22" value="&lt;font color=&quot;#ff0000&quot; style=&quot;font-size: 52px;&quot;&gt;X&lt;/font&gt;" style="text;html=1;strokeColor=none;fillColor=none;align=center;verticalAlign=middle;whiteSpace=wrap;rounded=0;" vertex="1" parent="1">
          <mxGeometry x="460" y="320" width="60" height="30" as="geometry" />
        </mxCell>
      </root>
    </mxGraphModel>
  </diagram>
</mxfile>
